<svg id="Calque_1" data-name="Calque 1" xmlns="http://www.w3.org/2000/svg" viewBox="0 0 448.9 48.21"><defs><style>.cls-1{fill:#f5b8a7;}</style></defs><title>PaulineTaveneau</title><path class="cls-1" d="M12.1 3.78c-.14 2.38-.34 9.34-.34 16.28v15c0 5.24.2 7.82.27 9.25s.61 1.77 2.52 2l3.54.41-.2.82c-2.31 0-6.05-.27-9.45-.27-2.79 0-5.92.27-8.43.27l.07-.82 3-.27c1.9-.2 2.38-.54 2.52-2.72.27-3.47.41-10.13.41-16.32v-9.52c0-6.8-.07-10-.14-11.63C5.8 5.1 5.6 4.76 4.44 4.7L.36 4.29l.27-.82c1 0 4.9.27 7.82.27M48.41 18.34c5-.2 7.76 1.65 8.71 3.15a6.92 6.92 0 0 1 1 3.47v17.68c0 3 .88 3.4 1.77 3.4 1.36 0 2.45-1.84 3.06-4.35l-.54 1.45s-1.69 5-5 5c-3.54 0-4.49-2.38-4.62-5.3-3.06 3.47-6.53 5.3-9.79 5.3-5 0-7.68-3.4-7.68-8 0-2.52 1-4.83 3.47-5.85 4.76-2 11.76-4.28 14.14-6v-3.4c.48-4.75-5.52-6.05-9.52-6.05m-2.2 20.53c0 3.4 1.7 6.32 4.76 6.32 3.74 0 5.64-2.45 6.6-5a17.43 17.43 0 0 0 .41-2.72v-8.53c-1.9 1.09-5.92 2.72-8.36 4-1.63.88-3.4 2-3.4 5.85zm1.31-20.23c-1 1-1.07 2.53-1.07 4.07a15.75 15.75 0 0 0 .27 2.18 1.2 1.2 0 0 1-.41 1.22 3.33 3.33 0 0 1-2 .54c-1.29 0-2.45-.88-2.45-2.79 0-2.21 1.62-3.69 5.62-5.22M98.67.82a69.16 69.16 0 0 0 9.59-.82c-.14 3.06-.34 8.16-.34 15.57v16.39c0 8.09.07 11.35.14 12.92s.75 1.7 3.94 1.84l-.2.82c-1.84 0-4.49-.27-6.8-.27-2.86 0-5.17.27-6.46.27v-.82c3.13-.14 3.67-.48 3.81-2 .07-1.29.34-6.8.34-13.39V14.21c0-7.89-.07-9.72-.14-11.42-.14-1-.61-1.22-3.94-1.22zM127.41 47.53c-1.56 0-3.88-.27-6.87-.27s-4.49.27-6.39.27l.14-.82c3.26-.14 3.74-.61 3.88-1.84s.27-4.22.27-8.43v-7.68a76.12 76.12 0 0 0-.27-8c-.07-.88-.75-1.09-3.74-1l.14-.82a53.64 53.64 0 0 0 9.38-1.16c-.07 1.77-.27 5.58-.27 11v7.62c0 5 .07 7 .2 8.43s.61 1.7 3.6 1.84zm-6.53-43c1.9 0 2.86 1.22 2.86 3.06a3 3 0 0 1-3.13 3 2.79 2.79 0 0 1-2.79-2.92 3 3 0 0 1 3-3.13zM178.41 48.14c-5 0-8.36-1.63-10.54-4.76-1.56-2.24-2.52-6-2.52-9.79 0-8.36 4.35-15.77 13.6-15.77 9.52 0 10.95 7.89 10.95 10.81a3.1 3.1 0 0 1-1 2.65c-1.49.86-1.59.86-8.49.75-1.11 0-6.49-1.08-9-1.08-.2 4.15.64 9.11 1.93 11.28a7.4 7.4 0 0 0 6.94 3.88c5.1 0 7.34-2.65 9-6.94-1.8 5.55-4.94 8.97-10.87 8.97zm.2-29.3c-4.83 0-6.89 5.78-7.23 12.11h5.6a38.1 38.1 0 0 0 6.39-.41c1-.27 1.36-1 1.36-2.45 0-3.6-1.22-9.25-6.05-9.25zM219.63 4.14h5.44c0 1.82-.07 7.26-.07 11.77v12.23c0 9.23.14 14.48.34 16.17.14 1.35.41 1.82 1.84 2 2.24.27 3.2.4 4.76.47l-.14.81c-1.84 0-5.85-.27-10.13-.27-3.6 0-7 .27-9.45.27l-.2-.81c1.29-.07 2.38-.2 4.56-.4 1.56-.2 2.31-.61 2.38-1.89.14-2.36.27-6.8.27-16.64v-11c0-4.85 0-10.76-.07-12.65m20.13 10.42M263.36 18.49c1.5.07 3.94.2 6.19.2s5.3-.2 6.73-.2l.2.82-2 .2c-1.29.2-1.56.48-1.16 1.63 1.84 6.26 5.58 15.64 7.41 20.67 2.18-5.78 5.37-13.94 7.21-20.67.27-1.09 0-1.43-1.09-1.5l-2.92-.34.07-.82c1.5 0 3.54.2 5.37.2 2 0 3.6-.2 4.83-.2l-.14.82c-2.79.2-3.47.68-4.62 3.33-3.26 7.34-7.14 18-9.72 25.23a14.26 14.26 0 0 0-2.31.28c-2.65-7.68-8-21.83-9.93-26.25-1-2.11-1.16-2.38-4.08-2.58zM250.41 18.34c5-.2 7.76 1.65 8.71 3.15a6.92 6.92 0 0 1 1 3.47v17.68c0 3 .88 3.4 1.77 3.4 1.36 0 2.45-1.84 3.06-4.35l-.54 1.45s-1.69 5-5 5c-3.54 0-4.49-2.38-4.62-5.3-3.06 3.47-6.53 5.3-9.79 5.3-5 0-7.68-3.4-7.68-8 0-2.52 1-4.83 3.47-5.85 4.76-2 11.76-4.28 14.14-6v-3.4c.48-4.75-5.52-6.05-9.52-6.05m-2.2 20.53c0 3.4 1.7 6.32 4.76 6.32 3.74 0 5.64-2.45 6.6-5a17.43 17.43 0 0 0 .41-2.72v-8.53c-1.9 1.09-5.92 2.72-8.36 4-1.63.88-3.4 2-3.4 5.85zm1.36-20.23c-1.06 1-1.1 2.51-1.12 4.05a15.75 15.75 0 0 0 .24 2.18 1.2 1.2 0 0 1-.42 1.22 3.33 3.33 0 0 1-2 .52c-1.29 0-2.44-.92-2.41-2.82 0-2.21 1.67-3.67 5.69-5.15M399.41 18.34c5-.2 7.76 1.65 8.71 3.15a6.92 6.92 0 0 1 1 3.47v17.68c0 3 .88 3.4 1.77 3.4 1.36 0 2.45-1.84 3.06-4.35l-.54 1.45s-1.69 5-5 5c-3.54 0-4.49-2.38-4.62-5.3-3.06 3.47-6.53 5.3-9.79 5.3-5 0-7.68-3.4-7.68-8 0-2.52 1-4.83 3.47-5.85 4.76-2 11.76-4.28 14.14-6v-3.4c.48-4.75-5.52-6.05-9.52-6.05m-2.2 20.53c0 3.4 1.7 6.32 4.76 6.32 3.74 0 5.64-2.45 6.6-5a17.43 17.43 0 0 0 .41-2.72v-8.53c-1.9 1.09-5.92 2.72-8.36 4-1.63.88-3.4 2-3.4 5.85zm1.31-20.23c-1 1-1.07 2.53-1.07 4.07a15.75 15.75 0 0 0 .27 2.18 1.2 1.2 0 0 1-.41 1.22 3.33 3.33 0 0 1-2 .54c-1.29 0-2.45-.88-2.45-2.79 0-2.21 1.62-3.69 5.62-5.22"/><path class="cls-1" d="M13.41 4.14c6.6-.92 14 .89 16.17 2.59 1.83 1.41 3.13 5.17 3.13 8.84 0 4.28-1.29 7.62-3.33 9.79-2.79 2.92-4.72 3.78-10 3.78-2 0-3.77-1.17-4.93-1.58h.07a14.09 14.09 0 0 0 3.81.48 6.48 6.48 0 0 0 5.78-2.92c1.29-1.9 2.18-4.9 2.18-9.32 0-3.54-.75-6.66-2.18-8.43-1.7-2.07-6.89-3.23-10.7-3.23M87.16 36.51v-8.68c0-4-.07-6.05-.2-7.41-.14-.88-1-1-4.35-1l-.14-.82c1.9 0 4.83-.07 6.53-.14s3-.34 3.67-.41c-.14 2.11-.27 5.64-.27 9.93v8c0 4.76.14 7.55.27 9.11.2 1.09.54 1.29 4.22 1.22l-.2.88c-1.36.07-3 .2-4.9.34a40.31 40.31 0 0 0-4.83.61c.14-1.84 0-6.37.14-8.07zM84.08 43.6a17.74 17.74 0 0 1-3.1 2.65 10.69 10.69 0 0 1-5.9 1.89c-3.74 0-5.51-1.5-6.12-2.72a7.27 7.27 0 0 1-.82-3.74c0-3.6.2-10.27.2-16 0-3.06-.07-4.42-.14-5.37s-.88-1-3.94-1l.2-.75c2 0 3.94-.07 5.71-.2s3.2-.27 3.94-.41a129.23 129.23 0 0 0-.54 14.35c0 6.6.07 9.52.41 11.15s1.5 2.48 3.4 2.58 7-2.89 8-3.89M439.16 36.51v-8.68c0-4-.07-6.05-.2-7.41-.14-.88-1-1-4.35-1l-.14-.82c1.9 0 4.83-.07 6.53-.14s3-.34 3.67-.41c-.14 2.11-.27 5.64-.27 9.93v8c0 4.76.14 7.55.27 9.11.2 1.09.54 1.29 4.22 1.22l-.2.88c-1.36.07-3 .2-4.9.34a40.31 40.31 0 0 0-4.83.61c.14-1.84 0-6.37.14-8.07zM436.08 43.6a17.74 17.74 0 0 1-3.1 2.65 10.69 10.69 0 0 1-5.9 1.89c-3.74 0-5.51-1.5-6.12-2.72a7.27 7.27 0 0 1-.82-3.74c0-3.6.2-10.27.2-16 0-3.06-.07-4.42-.14-5.37s-.88-1-3.94-1l.2-.75c2 0 3.94-.07 5.71-.2s3.2-.27 3.94-.41a129.23 129.23 0 0 0-.54 14.35c0 6.6.07 9.52.41 11.15s1.5 2.48 3.4 2.58 7-2.89 8-3.89M331.99 29.65v8.68c0 4 .07 6.05.2 7.41.14.88 1 1 4.35 1l.14.82c-1.9 0-4.83.07-6.53.14s-3 .34-3.67.41c.14-2.11.27-5.64.27-9.93v-8c0-4.76-.14-7.55-.27-9.11-.2-1.09-.54-1.29-4.22-1.22l.2-.88c1.36-.07 3-.2 4.9-.34a40.31 40.31 0 0 0 4.83-.61c-.14 1.84 0 6.37-.14 8.07zM335.08 21.56a17.74 17.74 0 0 1 3.1-2.65 10.69 10.69 0 0 1 5.9-1.89c3.74 0 5.51 1.5 6.12 2.72a7.27 7.27 0 0 1 .82 3.74c0 3.6-.2 10.27-.2 16 0 3.06.07 5.42.14 6.37s.88 1 3.94 1l-.2.75c-2 0-3.94.07-5.71.2s-3.2.27-3.94.41c.27-1.9.54-7.8.54-15.35 0-6.6-.07-9.52-.41-11.15s-1.5-2.48-3.4-2.58-7 2.89-8 3.89M138.99 29.65v8.68c0 4 .07 6.05.2 7.41.14.88 1 1 4.35 1l.14.82c-1.9 0-4.83.07-6.53.14s-3 .34-3.67.41c.14-2.11.27-5.64.27-9.93v-8c0-4.76-.14-7.55-.27-9.11-.2-1.09-.54-1.29-4.22-1.22l.2-.88c1.36-.07 3-.2 4.9-.34a40.31 40.31 0 0 0 4.83-.61c-.14 1.84 0 6.37-.14 8.07zM142.08 21.56a17.74 17.74 0 0 1 3.1-2.65 10.69 10.69 0 0 1 5.9-1.89c3.74 0 5.51 1.5 6.12 2.72a7.27 7.27 0 0 1 .82 3.74c0 3.6-.2 10.27-.2 16 0 3.06.07 5.42.14 6.37s.88 1 3.94 1l-.2.75c-2 0-3.94.07-5.71.2s-3.2.27-3.94.41c.27-1.9.54-7.8.54-15.35 0-6.6-.07-9.52-.41-11.15s-1.5-2.48-3.4-2.58-7 2.89-8 3.89M307.41 48.14c-5 0-8.36-1.63-10.54-4.76-1.56-2.24-2.52-6-2.52-9.79 0-8.36 4.35-15.77 13.6-15.77 9.52 0 10.95 7.89 10.95 10.81a3.1 3.1 0 0 1-1 2.65c-1.49.86-1.59.86-8.49.75-1.11 0-6.49-1.08-9-1.08-.2 4.15.64 9.11 1.93 11.28a7.4 7.4 0 0 0 6.94 3.88c5.1 0 7.34-2.65 9-6.94-1.8 5.55-4.94 8.97-10.87 8.97zm.2-29.3c-4.83 0-6.89 5.78-7.23 12.11h5.6a38.1 38.1 0 0 0 6.39-.41c1-.27 1.36-1 1.36-2.45 0-3.6-1.22-9.25-6.05-9.25zM370.41 48.14c-5 0-8.36-1.63-10.54-4.76-1.56-2.24-2.52-6-2.52-9.79 0-8.36 4.35-15.77 13.6-15.77 9.52 0 10.95 7.89 10.95 10.81a3.1 3.1 0 0 1-1 2.65c-1.49.86-1.59.86-8.49.75-1.11 0-6.49-1.08-9-1.08-.2 4.15.64 9.11 1.93 11.28a7.4 7.4 0 0 0 6.94 3.88c5.1 0 7.34-2.65 9-6.94-1.8 5.55-4.94 8.97-10.87 8.97zm.2-29.3c-4.83 0-6.89 5.78-7.23 12.11h5.6a38.1 38.1 0 0 0 6.39-.41c1-.27 1.36-1 1.36-2.45 0-3.6-1.22-9.25-6.05-9.25zM219.41 4.14c-10.06 0-11.06.23-12.29 2.88a35.38 35.38 0 0 0-2.45 7.14l-.68-.48a84.72 84.72 0 0 0 1.36-11.76c1.63.61 5 2.22 14.05 2.22M221.53 4.07c11.16 0 14.2-1.07 16.3-1.93a118.58 118.58 0 0 0-.58 12.1l-.87.65a27.42 27.42 0 0 0-1.67-8.4c-.65-1.81-1.88-2.54-12.6-2.39"/></svg>
