<svg id="behance" xmlns="http://www.w3.org/2000/svg" viewBox="0 0 130.41 130.41"><title>Sans titre - 1</title><path d="M80.13,38.07V44h24.47V38.07Zm12.4,20.4c6,0,9.05,3.54,9.58,9.34H82.58C83,62.07,86.79,58.47,92.54,58.47Zm.77,28c-7,0-10.73-4.12-10.73-11.11h31.51c0-.72.1-1.48.1-2.25,0-12.93-7.57-23.71-21.26-23.71-13.31,0-22.37,10-22.37,23.13,0,13.6,8.57,22.94,22.37,22.94,10.44,0,17.19-4.69,20.45-14.7H102.79C101.64,84.53,96.94,86.49,93.3,86.49ZM29.37,84.1V67.48H43.83c5.84,0,9.53,2.44,9.53,8.62s-4.41,8-9.82,8Zm0-25.72V44.3H41.82c4.79,0,9.1,1.34,9.1,6.9,0,5.12-3.35,7.18-8.09,7.18ZM16.1,34V94.35H45.36c11,0,21.26-5.27,21.26-17.53,0-7.57-3.59-13.17-11-15.28C61,59,63.85,55,63.85,48.94c0-12-9-14.94-19.3-14.94Z"/></svg>