<svg xmlns="http://www.w3.org/2000/svg" viewBox="0 0 130.41 130"><title>Sans titre - 1</title><g id="dribbble"><path d="M81.48,94.63A32.38,32.38,0,0,1,48.25,89.8s.44.3.74.54C55.2,76.84,74.38,70.13,74.38,70.13s.15,0,.2,0A136.31,136.31,0,0,1,81.48,94.63ZM72.36,64.71c-.39.15-.84.25-1.28.39,0,0-17.45,5.62-26.27,21.34a32.31,32.31,0,0,1-8.28-21.59,7.28,7.28,0,0,1,0-1,118.78,118.78,0,0,0,33.17-4.58C70.68,61.06,71.57,62.89,72.36,64.71ZM67.08,54.26A122.33,122.33,0,0,1,37.21,58.2,32.39,32.39,0,0,1,55.06,35.63,195.28,195.28,0,0,1,67.08,54.26ZM100.8,70A32.47,32.47,0,0,1,86.95,91.67a144.32,144.32,0,0,0-6.31-23.12A48,48,0,0,1,100.8,70ZM61.12,33.46a.17.17,0,0,0-.1,0S61.07,33.46,61.12,33.46ZM90.2,40.6c-.1.15-4.68,7.15-16.86,11.68A157.91,157.91,0,0,0,61.22,33.46a32.75,32.75,0,0,1,7.64-.94A32.09,32.09,0,0,1,90.2,40.6Zm11,23.91c-.39,0-11.39-2.46-22.53-1-.25-.54-.44-1.13-.69-1.68-.69-1.58-1.43-3.15-2.17-4.68,12.77-5.23,17.94-12.72,18-12.82A32.41,32.41,0,0,1,101.19,64.51Zm5.52.35a37.86,37.86,0,1,0-37.86,37.86A37.87,37.87,0,0,0,106.71,64.86Z"/></g></svg>