<svg id="Calque_1" data-name="Calque 1" xmlns="http://www.w3.org/2000/svg" viewBox="0 0 90.71 90.71"><defs><style>.cls-1{fill:#f5b8a7;}</style></defs><title>favicon</title><path class="cls-1" d="M39.26,8.6c-.24,4.1-.59,16.1-.59,28.07V62.53c0,9,.34,13.48.47,15.95s1.05,3.05,4.34,3.45l6.1.71L49.24,84c-4,0-10.43-.47-16.29-.47-4.81,0-10.21.47-14.53.47l.12-1.41,5.17-.47c3.28-.34,4.1-.93,4.34-4.69.47-6,.71-17.46.71-28.13V32.93c0-11.72-.12-17.24-.24-20-.12-2-.47-2.59-2.47-2.69l-7-.71.47-1.41c1.72,0,8.45.47,13.48.47"/><path class="cls-1" d="M41.51,9.22c11.38-1.59,24.13,1.53,27.88,4.46,3.15,2.43,5.4,8.91,5.4,15.24,0,7.38-2.22,13.14-5.74,16.88-4.81,5-8.14,6.52-17.24,6.52-3.45,0-6.5-2-8.5-2.72h.12a24.29,24.29,0,0,0,6.57.83,11.17,11.17,0,0,0,10-5c2.22-3.28,3.76-8.45,3.76-16.07,0-6.1-1.29-11.48-3.76-14.53C57,11.22,48.08,9.22,41.51,9.22"/></svg>