<svg xmlns="http://www.w3.org/2000/svg" viewBox="0 0 130.41 130.41"><title>Sans titre - 1</title><g id="twitter"><path d="M102.56,41.29a31.08,31.08,0,0,1-8.93,2.4,15.46,15.46,0,0,0,6.81-8.54,30.52,30.52,0,0,1-9.84,3.74A15.52,15.52,0,0,0,63.79,49.5a17.5,17.5,0,0,0,.38,3.55,44.06,44.06,0,0,1-32-16.22A15.52,15.52,0,0,0,37,57.56a15.61,15.61,0,0,1-7-2v.19A15.5,15.5,0,0,0,42.43,71a16.39,16.39,0,0,1-4.08.53,19.54,19.54,0,0,1-2.93-.24A15.53,15.53,0,0,0,49.92,82a31,31,0,0,1-19.24,6.62,32,32,0,0,1-3.74-.19,43.8,43.8,0,0,0,23.8,7c28.51,0,44.1-23.61,44.1-44.1,0-.67,0-1.34,0-2A33.32,33.32,0,0,0,102.56,41.29Z"/></g></svg>